<?xml version="1.0" encoding="utf-8"?>
<!-- Generator: Adobe Illustrator 23.0.1, SVG Export Plug-In . SVG Version: 6.00 Build 0)  -->
<svg version="1.1" id="sz-logo-glyph" xmlns="http://www.w3.org/2000/svg" xmlns:xlink="http://www.w3.org/1999/xlink" x="0px"
	 y="0px" viewBox="0 0 1471.8 1141.5" style="enable-background:new 0 0 1471.8 1141.5;" xml:space="preserve">
<style type="text/css">
	.st0{fill:#FFFFFF;}
</style>
<title>SZ Glyph White</title>
<path class="st0" d="M1244.3,229.8L1471.8,0.2L347.1,0c-20.9,0-41.9,1.3-62.6,3.9C121.6,23.9,3.1,203.4,3.1,342.8
	c0,148.8,76.4,278.5,222,325.1c74.9,24,258.2,15.4,258.2,15.4l207-228.1H237.4v-225L1244.3,229.8z"/>
<path class="st0" d="M227.5,911.8L0,1141.2l1124.7,0.2c20.9,0,41.8-1.4,62.6-3.9c162.9-20,281.3-199.5,281.3-338.9
	c0-148.8-76.4-278.5-222-325.1c-74.9-24-237.4-15.9-237.4-15.9L781.5,686.2h452.9v225L227.5,911.8z"/>
</svg>
